# xmcd
#
# Track frame offsets:
#	150
#	14129
#	24582
#	40932
#	57738
#	75002
#	85593
#	104365
#	121025
#	135833
#	148782
#	159663
#	169631
#
# Disc length: 2433 seconds
#
# Revision: 1
# Processed by: cddbd v1.4PL0 Copyright (c) Steve Scherf et al.
# Submitted via: audiograbber 1.81.02
#
DISCID=9c097f0d
DTITLE=Josh Arnold - Scarifier
DYEAR=1900
DGENRE=
TTITLE0=Scarifier
TTITLE1=Rank
TTITLE2=Brigalow
TTITLE3=Scrubber
TTITLE4=Roadkill
TTITLE5=Muster in the M.H.C
TTITLE6=Curse of the Yodeo
TTITLE7=Sun to Shine
TTITLE8=Berko
TTITLE9=Ground Up
TTITLE10=I'm on Fire
TTITLE11=Billy
TTITLE12=Radish
EXTD=
EXTT0=
EXTT1=
EXTT2=
EXTT3=
EXTT4=
EXTT5=
EXTT6=
EXTT7=
EXTT8=
EXTT9=
EXTT10=
EXTT11=
EXTT12=
PLAYORDER=
